<svg xmlns="http://www.w3.org/2000/svg" viewBox="0 0 100 100">
  <defs>
    <linearGradient id="grad" x1="0%" y1="0%" x2="100%" y2="100%">
      <stop offset="0%" style="stop-color:#667eea;stop-opacity:1" />
      <stop offset="100%" style="stop-color:#764ba2;stop-opacity:1" />
    </linearGradient>
  </defs>

  <!-- Snowflake background -->
  <circle cx="50" cy="50" r="45" fill="url(#grad)"/>

  <!-- Simplified NixOS snowflake -->
  <g fill="white" transform="translate(50, 50)">
    <!-- Center hexagon -->
    <polygon points="0,-8 7,-4 7,4 0,8 -7,4 -7,-4" />

    <!-- Six arms -->
    <g>
      <rect x="-2" y="-25" width="4" height="17" />
      <polygon points="0,-25 -5,-30 5,-30" />
    </g>
    <g transform="rotate(60)">
      <rect x="-2" y="-25" width="4" height="17" />
      <polygon points="0,-25 -5,-30 5,-30" />
    </g>
    <g transform="rotate(120)">
      <rect x="-2" y="-25" width="4" height="17" />
      <polygon points="0,-25 -5,-30 5,-30" />
    </g>
    <g transform="rotate(180)">
      <rect x="-2" y="-25" width="4" height="17" />
      <polygon points="0,-25 -5,-30 5,-30" />
    </g>
    <g transform="rotate(240)">
      <rect x="-2" y="-25" width="4" height="17" />
      <polygon points="0,-25 -5,-30 5,-30" />
    </g>
    <g transform="rotate(300)">
      <rect x="-2" y="-25" width="4" height="17" />
      <polygon points="0,-25 -5,-30 5,-30" />
    </g>
  </g>
</svg>
